M48
; DRILL file {KiCad 8.0.5} date 2024-09-19T11:43:12+0200
; FORMAT={-:-/ absolute / inch / decimal}
; #@! TF.CreationDate,2024-09-19T11:43:12+02:00
; #@! TF.GenerationSoftware,Kicad,Pcbnew,8.0.5
; #@! TF.FileFunction,Plated,1,2,PTH
FMAT,2
INCH
; #@! TA.AperFunction,Plated,PTH,ComponentDrill
T1C0.0394
; #@! TA.AperFunction,Plated,PTH,ComponentDrill
T2C0.0512
%
G90
G05
T1
X5.041Y-3.0961
X5.041Y-3.1961
X5.041Y-3.2961
X5.041Y-3.3961
X5.041Y-3.4961
X5.041Y-3.5961
X5.041Y-3.6961
X5.041Y-3.7961
X5.041Y-3.8961
X5.141Y-3.0961
X5.141Y-3.1961
X5.141Y-3.2961
X5.141Y-3.3961
X5.141Y-3.4961
X5.141Y-3.5961
X5.141Y-3.6961
X5.141Y-3.7961
X5.141Y-3.8961
X6.041Y-3.0961
X6.041Y-3.1961
X6.041Y-3.2961
X6.041Y-3.3961
X6.041Y-3.4961
X6.041Y-3.5961
X6.041Y-3.6961
X6.041Y-3.7961
X6.041Y-3.8961
X6.141Y-3.0961
X6.141Y-3.1961
X6.141Y-3.2961
X6.141Y-3.3961
X6.141Y-3.4961
X6.141Y-3.5961
X6.141Y-3.6961
X6.141Y-3.7961
X6.141Y-3.8961
T2
X5.2937Y-4.2
X5.4906Y-4.2
X5.6874Y-4.2
X5.8843Y-4.2
M30
