%TF.GenerationSoftware,KiCad,Pcbnew,8.0.5*%
%TF.CreationDate,2024-09-19T11:43:03+02:00*%
%TF.ProjectId,QuinLED-ESP32-Lux,5175696e-4c45-4442-9d45-535033322d4c,rev?*%
%TF.SameCoordinates,Original*%
%TF.FileFunction,Legend,Bot*%
%TF.FilePolarity,Positive*%
%FSLAX46Y46*%
G04 Gerber Fmt 4.6, Leading zero omitted, Abs format (unit mm)*
G04 Created by KiCad (PCBNEW 8.0.5) date 2024-09-19 11:43:03*
%MOMM*%
%LPD*%
G01*
G04 APERTURE LIST*
%ADD10C,0.150000*%
G04 APERTURE END LIST*
D10*
X146564586Y-84225923D02*
X146421729Y-84273542D01*
X146421729Y-84273542D02*
X146183634Y-84273542D01*
X146183634Y-84273542D02*
X146088396Y-84225923D01*
X146088396Y-84225923D02*
X146040777Y-84178303D01*
X146040777Y-84178303D02*
X145993158Y-84083065D01*
X145993158Y-84083065D02*
X145993158Y-83987827D01*
X145993158Y-83987827D02*
X146040777Y-83892589D01*
X146040777Y-83892589D02*
X146088396Y-83844970D01*
X146088396Y-83844970D02*
X146183634Y-83797351D01*
X146183634Y-83797351D02*
X146374110Y-83749732D01*
X146374110Y-83749732D02*
X146469348Y-83702113D01*
X146469348Y-83702113D02*
X146516967Y-83654494D01*
X146516967Y-83654494D02*
X146564586Y-83559256D01*
X146564586Y-83559256D02*
X146564586Y-83464018D01*
X146564586Y-83464018D02*
X146516967Y-83368780D01*
X146516967Y-83368780D02*
X146469348Y-83321161D01*
X146469348Y-83321161D02*
X146374110Y-83273542D01*
X146374110Y-83273542D02*
X146136015Y-83273542D01*
X146136015Y-83273542D02*
X145993158Y-83321161D01*
X145564586Y-84273542D02*
X145564586Y-83273542D01*
X145564586Y-83273542D02*
X145326491Y-83273542D01*
X145326491Y-83273542D02*
X145183634Y-83321161D01*
X145183634Y-83321161D02*
X145088396Y-83416399D01*
X145088396Y-83416399D02*
X145040777Y-83511637D01*
X145040777Y-83511637D02*
X144993158Y-83702113D01*
X144993158Y-83702113D02*
X144993158Y-83844970D01*
X144993158Y-83844970D02*
X145040777Y-84035446D01*
X145040777Y-84035446D02*
X145088396Y-84130684D01*
X145088396Y-84130684D02*
X145183634Y-84225923D01*
X145183634Y-84225923D02*
X145326491Y-84273542D01*
X145326491Y-84273542D02*
X145564586Y-84273542D01*
X144612205Y-83987827D02*
X144136015Y-83987827D01*
X144707443Y-84273542D02*
X144374110Y-83273542D01*
X144374110Y-83273542D02*
X144040777Y-84273542D01*
X143707443Y-84178303D02*
X143659824Y-84225923D01*
X143659824Y-84225923D02*
X143707443Y-84273542D01*
X143707443Y-84273542D02*
X143755062Y-84225923D01*
X143755062Y-84225923D02*
X143707443Y-84178303D01*
X143707443Y-84178303D02*
X143707443Y-84273542D01*
X143707443Y-83654494D02*
X143659824Y-83702113D01*
X143659824Y-83702113D02*
X143707443Y-83749732D01*
X143707443Y-83749732D02*
X143755062Y-83702113D01*
X143755062Y-83702113D02*
X143707443Y-83654494D01*
X143707443Y-83654494D02*
X143707443Y-83749732D01*
X141945539Y-83321161D02*
X142040777Y-83273542D01*
X142040777Y-83273542D02*
X142183634Y-83273542D01*
X142183634Y-83273542D02*
X142326491Y-83321161D01*
X142326491Y-83321161D02*
X142421729Y-83416399D01*
X142421729Y-83416399D02*
X142469348Y-83511637D01*
X142469348Y-83511637D02*
X142516967Y-83702113D01*
X142516967Y-83702113D02*
X142516967Y-83844970D01*
X142516967Y-83844970D02*
X142469348Y-84035446D01*
X142469348Y-84035446D02*
X142421729Y-84130684D01*
X142421729Y-84130684D02*
X142326491Y-84225923D01*
X142326491Y-84225923D02*
X142183634Y-84273542D01*
X142183634Y-84273542D02*
X142088396Y-84273542D01*
X142088396Y-84273542D02*
X141945539Y-84225923D01*
X141945539Y-84225923D02*
X141897920Y-84178303D01*
X141897920Y-84178303D02*
X141897920Y-83844970D01*
X141897920Y-83844970D02*
X142088396Y-83844970D01*
X141469348Y-84273542D02*
X141469348Y-83273542D01*
X141469348Y-83273542D02*
X141088396Y-83273542D01*
X141088396Y-83273542D02*
X140993158Y-83321161D01*
X140993158Y-83321161D02*
X140945539Y-83368780D01*
X140945539Y-83368780D02*
X140897920Y-83464018D01*
X140897920Y-83464018D02*
X140897920Y-83606875D01*
X140897920Y-83606875D02*
X140945539Y-83702113D01*
X140945539Y-83702113D02*
X140993158Y-83749732D01*
X140993158Y-83749732D02*
X141088396Y-83797351D01*
X141088396Y-83797351D02*
X141469348Y-83797351D01*
X140469348Y-84273542D02*
X140469348Y-83273542D01*
X139802682Y-83273542D02*
X139612206Y-83273542D01*
X139612206Y-83273542D02*
X139516968Y-83321161D01*
X139516968Y-83321161D02*
X139421730Y-83416399D01*
X139421730Y-83416399D02*
X139374111Y-83606875D01*
X139374111Y-83606875D02*
X139374111Y-83940208D01*
X139374111Y-83940208D02*
X139421730Y-84130684D01*
X139421730Y-84130684D02*
X139516968Y-84225923D01*
X139516968Y-84225923D02*
X139612206Y-84273542D01*
X139612206Y-84273542D02*
X139802682Y-84273542D01*
X139802682Y-84273542D02*
X139897920Y-84225923D01*
X139897920Y-84225923D02*
X139993158Y-84130684D01*
X139993158Y-84130684D02*
X140040777Y-83940208D01*
X140040777Y-83940208D02*
X140040777Y-83606875D01*
X140040777Y-83606875D02*
X139993158Y-83416399D01*
X139993158Y-83416399D02*
X139897920Y-83321161D01*
X139897920Y-83321161D02*
X139802682Y-83273542D01*
X139040777Y-83273542D02*
X138421730Y-83273542D01*
X138421730Y-83273542D02*
X138755063Y-83654494D01*
X138755063Y-83654494D02*
X138612206Y-83654494D01*
X138612206Y-83654494D02*
X138516968Y-83702113D01*
X138516968Y-83702113D02*
X138469349Y-83749732D01*
X138469349Y-83749732D02*
X138421730Y-83844970D01*
X138421730Y-83844970D02*
X138421730Y-84083065D01*
X138421730Y-84083065D02*
X138469349Y-84178303D01*
X138469349Y-84178303D02*
X138516968Y-84225923D01*
X138516968Y-84225923D02*
X138612206Y-84273542D01*
X138612206Y-84273542D02*
X138897920Y-84273542D01*
X138897920Y-84273542D02*
X138993158Y-84225923D01*
X138993158Y-84225923D02*
X139040777Y-84178303D01*
X138040777Y-83368780D02*
X137993158Y-83321161D01*
X137993158Y-83321161D02*
X137897920Y-83273542D01*
X137897920Y-83273542D02*
X137659825Y-83273542D01*
X137659825Y-83273542D02*
X137564587Y-83321161D01*
X137564587Y-83321161D02*
X137516968Y-83368780D01*
X137516968Y-83368780D02*
X137469349Y-83464018D01*
X137469349Y-83464018D02*
X137469349Y-83559256D01*
X137469349Y-83559256D02*
X137516968Y-83702113D01*
X137516968Y-83702113D02*
X138088396Y-84273542D01*
X138088396Y-84273542D02*
X137469349Y-84273542D01*
X146564586Y-85835867D02*
X146421729Y-85883486D01*
X146421729Y-85883486D02*
X146183634Y-85883486D01*
X146183634Y-85883486D02*
X146088396Y-85835867D01*
X146088396Y-85835867D02*
X146040777Y-85788247D01*
X146040777Y-85788247D02*
X145993158Y-85693009D01*
X145993158Y-85693009D02*
X145993158Y-85597771D01*
X145993158Y-85597771D02*
X146040777Y-85502533D01*
X146040777Y-85502533D02*
X146088396Y-85454914D01*
X146088396Y-85454914D02*
X146183634Y-85407295D01*
X146183634Y-85407295D02*
X146374110Y-85359676D01*
X146374110Y-85359676D02*
X146469348Y-85312057D01*
X146469348Y-85312057D02*
X146516967Y-85264438D01*
X146516967Y-85264438D02*
X146564586Y-85169200D01*
X146564586Y-85169200D02*
X146564586Y-85073962D01*
X146564586Y-85073962D02*
X146516967Y-84978724D01*
X146516967Y-84978724D02*
X146469348Y-84931105D01*
X146469348Y-84931105D02*
X146374110Y-84883486D01*
X146374110Y-84883486D02*
X146136015Y-84883486D01*
X146136015Y-84883486D02*
X145993158Y-84931105D01*
X144993158Y-85788247D02*
X145040777Y-85835867D01*
X145040777Y-85835867D02*
X145183634Y-85883486D01*
X145183634Y-85883486D02*
X145278872Y-85883486D01*
X145278872Y-85883486D02*
X145421729Y-85835867D01*
X145421729Y-85835867D02*
X145516967Y-85740628D01*
X145516967Y-85740628D02*
X145564586Y-85645390D01*
X145564586Y-85645390D02*
X145612205Y-85454914D01*
X145612205Y-85454914D02*
X145612205Y-85312057D01*
X145612205Y-85312057D02*
X145564586Y-85121581D01*
X145564586Y-85121581D02*
X145516967Y-85026343D01*
X145516967Y-85026343D02*
X145421729Y-84931105D01*
X145421729Y-84931105D02*
X145278872Y-84883486D01*
X145278872Y-84883486D02*
X145183634Y-84883486D01*
X145183634Y-84883486D02*
X145040777Y-84931105D01*
X145040777Y-84931105D02*
X144993158Y-84978724D01*
X144088396Y-85883486D02*
X144564586Y-85883486D01*
X144564586Y-85883486D02*
X144564586Y-84883486D01*
X143755062Y-85788247D02*
X143707443Y-85835867D01*
X143707443Y-85835867D02*
X143755062Y-85883486D01*
X143755062Y-85883486D02*
X143802681Y-85835867D01*
X143802681Y-85835867D02*
X143755062Y-85788247D01*
X143755062Y-85788247D02*
X143755062Y-85883486D01*
X143755062Y-85264438D02*
X143707443Y-85312057D01*
X143707443Y-85312057D02*
X143755062Y-85359676D01*
X143755062Y-85359676D02*
X143802681Y-85312057D01*
X143802681Y-85312057D02*
X143755062Y-85264438D01*
X143755062Y-85264438D02*
X143755062Y-85359676D01*
X141993158Y-84931105D02*
X142088396Y-84883486D01*
X142088396Y-84883486D02*
X142231253Y-84883486D01*
X142231253Y-84883486D02*
X142374110Y-84931105D01*
X142374110Y-84931105D02*
X142469348Y-85026343D01*
X142469348Y-85026343D02*
X142516967Y-85121581D01*
X142516967Y-85121581D02*
X142564586Y-85312057D01*
X142564586Y-85312057D02*
X142564586Y-85454914D01*
X142564586Y-85454914D02*
X142516967Y-85645390D01*
X142516967Y-85645390D02*
X142469348Y-85740628D01*
X142469348Y-85740628D02*
X142374110Y-85835867D01*
X142374110Y-85835867D02*
X142231253Y-85883486D01*
X142231253Y-85883486D02*
X142136015Y-85883486D01*
X142136015Y-85883486D02*
X141993158Y-85835867D01*
X141993158Y-85835867D02*
X141945539Y-85788247D01*
X141945539Y-85788247D02*
X141945539Y-85454914D01*
X141945539Y-85454914D02*
X142136015Y-85454914D01*
X141516967Y-85883486D02*
X141516967Y-84883486D01*
X141516967Y-84883486D02*
X141136015Y-84883486D01*
X141136015Y-84883486D02*
X141040777Y-84931105D01*
X141040777Y-84931105D02*
X140993158Y-84978724D01*
X140993158Y-84978724D02*
X140945539Y-85073962D01*
X140945539Y-85073962D02*
X140945539Y-85216819D01*
X140945539Y-85216819D02*
X140993158Y-85312057D01*
X140993158Y-85312057D02*
X141040777Y-85359676D01*
X141040777Y-85359676D02*
X141136015Y-85407295D01*
X141136015Y-85407295D02*
X141516967Y-85407295D01*
X140516967Y-85883486D02*
X140516967Y-84883486D01*
X139850301Y-84883486D02*
X139659825Y-84883486D01*
X139659825Y-84883486D02*
X139564587Y-84931105D01*
X139564587Y-84931105D02*
X139469349Y-85026343D01*
X139469349Y-85026343D02*
X139421730Y-85216819D01*
X139421730Y-85216819D02*
X139421730Y-85550152D01*
X139421730Y-85550152D02*
X139469349Y-85740628D01*
X139469349Y-85740628D02*
X139564587Y-85835867D01*
X139564587Y-85835867D02*
X139659825Y-85883486D01*
X139659825Y-85883486D02*
X139850301Y-85883486D01*
X139850301Y-85883486D02*
X139945539Y-85835867D01*
X139945539Y-85835867D02*
X140040777Y-85740628D01*
X140040777Y-85740628D02*
X140088396Y-85550152D01*
X140088396Y-85550152D02*
X140088396Y-85216819D01*
X140088396Y-85216819D02*
X140040777Y-85026343D01*
X140040777Y-85026343D02*
X139945539Y-84931105D01*
X139945539Y-84931105D02*
X139850301Y-84883486D01*
X139088396Y-84883486D02*
X138469349Y-84883486D01*
X138469349Y-84883486D02*
X138802682Y-85264438D01*
X138802682Y-85264438D02*
X138659825Y-85264438D01*
X138659825Y-85264438D02*
X138564587Y-85312057D01*
X138564587Y-85312057D02*
X138516968Y-85359676D01*
X138516968Y-85359676D02*
X138469349Y-85454914D01*
X138469349Y-85454914D02*
X138469349Y-85693009D01*
X138469349Y-85693009D02*
X138516968Y-85788247D01*
X138516968Y-85788247D02*
X138564587Y-85835867D01*
X138564587Y-85835867D02*
X138659825Y-85883486D01*
X138659825Y-85883486D02*
X138945539Y-85883486D01*
X138945539Y-85883486D02*
X139040777Y-85835867D01*
X139040777Y-85835867D02*
X139088396Y-85788247D01*
X138136015Y-84883486D02*
X137516968Y-84883486D01*
X137516968Y-84883486D02*
X137850301Y-85264438D01*
X137850301Y-85264438D02*
X137707444Y-85264438D01*
X137707444Y-85264438D02*
X137612206Y-85312057D01*
X137612206Y-85312057D02*
X137564587Y-85359676D01*
X137564587Y-85359676D02*
X137516968Y-85454914D01*
X137516968Y-85454914D02*
X137516968Y-85693009D01*
X137516968Y-85693009D02*
X137564587Y-85788247D01*
X137564587Y-85788247D02*
X137612206Y-85835867D01*
X137612206Y-85835867D02*
X137707444Y-85883486D01*
X137707444Y-85883486D02*
X137993158Y-85883486D01*
X137993158Y-85883486D02*
X138088396Y-85835867D01*
X138088396Y-85835867D02*
X138136015Y-85788247D01*
X158469275Y-109590366D02*
X158469275Y-110304651D01*
X158469275Y-110304651D02*
X158516894Y-110447508D01*
X158516894Y-110447508D02*
X158612132Y-110542747D01*
X158612132Y-110542747D02*
X158754989Y-110590366D01*
X158754989Y-110590366D02*
X158850227Y-110590366D01*
X157516894Y-110590366D02*
X157993084Y-110590366D01*
X157993084Y-110590366D02*
X157993084Y-109590366D01*
X156612132Y-110495127D02*
X156659751Y-110542747D01*
X156659751Y-110542747D02*
X156802608Y-110590366D01*
X156802608Y-110590366D02*
X156897846Y-110590366D01*
X156897846Y-110590366D02*
X157040703Y-110542747D01*
X157040703Y-110542747D02*
X157135941Y-110447508D01*
X157135941Y-110447508D02*
X157183560Y-110352270D01*
X157183560Y-110352270D02*
X157231179Y-110161794D01*
X157231179Y-110161794D02*
X157231179Y-110018937D01*
X157231179Y-110018937D02*
X157183560Y-109828461D01*
X157183560Y-109828461D02*
X157135941Y-109733223D01*
X157135941Y-109733223D02*
X157040703Y-109637985D01*
X157040703Y-109637985D02*
X156897846Y-109590366D01*
X156897846Y-109590366D02*
X156802608Y-109590366D01*
X156802608Y-109590366D02*
X156659751Y-109637985D01*
X156659751Y-109637985D02*
X156612132Y-109685604D01*
X155897846Y-109590366D02*
X155897846Y-110304651D01*
X155897846Y-110304651D02*
X155945465Y-110447508D01*
X155945465Y-110447508D02*
X156040703Y-110542747D01*
X156040703Y-110542747D02*
X156183560Y-110590366D01*
X156183560Y-110590366D02*
X156278798Y-110590366D01*
X154945465Y-110590366D02*
X155421655Y-110590366D01*
X155421655Y-110590366D02*
X155421655Y-109590366D01*
X154040703Y-110495127D02*
X154088322Y-110542747D01*
X154088322Y-110542747D02*
X154231179Y-110590366D01*
X154231179Y-110590366D02*
X154326417Y-110590366D01*
X154326417Y-110590366D02*
X154469274Y-110542747D01*
X154469274Y-110542747D02*
X154564512Y-110447508D01*
X154564512Y-110447508D02*
X154612131Y-110352270D01*
X154612131Y-110352270D02*
X154659750Y-110161794D01*
X154659750Y-110161794D02*
X154659750Y-110018937D01*
X154659750Y-110018937D02*
X154612131Y-109828461D01*
X154612131Y-109828461D02*
X154564512Y-109733223D01*
X154564512Y-109733223D02*
X154469274Y-109637985D01*
X154469274Y-109637985D02*
X154326417Y-109590366D01*
X154326417Y-109590366D02*
X154231179Y-109590366D01*
X154231179Y-109590366D02*
X154088322Y-109637985D01*
X154088322Y-109637985D02*
X154040703Y-109685604D01*
X153326417Y-109590366D02*
X153326417Y-110304651D01*
X153326417Y-110304651D02*
X153374036Y-110447508D01*
X153374036Y-110447508D02*
X153469274Y-110542747D01*
X153469274Y-110542747D02*
X153612131Y-110590366D01*
X153612131Y-110590366D02*
X153707369Y-110590366D01*
X152374036Y-110590366D02*
X152850226Y-110590366D01*
X152850226Y-110590366D02*
X152850226Y-109590366D01*
X151469274Y-110495127D02*
X151516893Y-110542747D01*
X151516893Y-110542747D02*
X151659750Y-110590366D01*
X151659750Y-110590366D02*
X151754988Y-110590366D01*
X151754988Y-110590366D02*
X151897845Y-110542747D01*
X151897845Y-110542747D02*
X151993083Y-110447508D01*
X151993083Y-110447508D02*
X152040702Y-110352270D01*
X152040702Y-110352270D02*
X152088321Y-110161794D01*
X152088321Y-110161794D02*
X152088321Y-110018937D01*
X152088321Y-110018937D02*
X152040702Y-109828461D01*
X152040702Y-109828461D02*
X151993083Y-109733223D01*
X151993083Y-109733223D02*
X151897845Y-109637985D01*
X151897845Y-109637985D02*
X151754988Y-109590366D01*
X151754988Y-109590366D02*
X151659750Y-109590366D01*
X151659750Y-109590366D02*
X151516893Y-109637985D01*
X151516893Y-109637985D02*
X151469274Y-109685604D01*
X150754988Y-109590366D02*
X150754988Y-110304651D01*
X150754988Y-110304651D02*
X150802607Y-110447508D01*
X150802607Y-110447508D02*
X150897845Y-110542747D01*
X150897845Y-110542747D02*
X151040702Y-110590366D01*
X151040702Y-110590366D02*
X151135940Y-110590366D01*
X149802607Y-110590366D02*
X150278797Y-110590366D01*
X150278797Y-110590366D02*
X150278797Y-109590366D01*
X148897845Y-110495127D02*
X148945464Y-110542747D01*
X148945464Y-110542747D02*
X149088321Y-110590366D01*
X149088321Y-110590366D02*
X149183559Y-110590366D01*
X149183559Y-110590366D02*
X149326416Y-110542747D01*
X149326416Y-110542747D02*
X149421654Y-110447508D01*
X149421654Y-110447508D02*
X149469273Y-110352270D01*
X149469273Y-110352270D02*
X149516892Y-110161794D01*
X149516892Y-110161794D02*
X149516892Y-110018937D01*
X149516892Y-110018937D02*
X149469273Y-109828461D01*
X149469273Y-109828461D02*
X149421654Y-109733223D01*
X149421654Y-109733223D02*
X149326416Y-109637985D01*
X149326416Y-109637985D02*
X149183559Y-109590366D01*
X149183559Y-109590366D02*
X149088321Y-109590366D01*
X149088321Y-109590366D02*
X148945464Y-109637985D01*
X148945464Y-109637985D02*
X148897845Y-109685604D01*
M02*
