%TF.GenerationSoftware,KiCad,Pcbnew,8.0.5*%
%TF.CreationDate,2024-09-19T11:43:03+02:00*%
%TF.ProjectId,QuinLED-ESP32-Lux,5175696e-4c45-4442-9d45-535033322d4c,rev?*%
%TF.SameCoordinates,Original*%
%TF.FileFunction,Soldermask,Top*%
%TF.FilePolarity,Negative*%
%FSLAX46Y46*%
G04 Gerber Fmt 4.6, Leading zero omitted, Abs format (unit mm)*
G04 Created by KiCad (PCBNEW 8.0.5) date 2024-09-19 11:43:03*
%MOMM*%
%LPD*%
G01*
G04 APERTURE LIST*
%ADD10C,1.700000*%
%ADD11R,2.600000X2.600000*%
%ADD12C,2.600000*%
G04 APERTURE END LIST*
D10*
%TO.C,U1*%
X128040793Y-78640533D03*
X128040793Y-81180533D03*
X128040793Y-83720533D03*
X128040793Y-86260533D03*
X128040793Y-88800533D03*
X128040793Y-91340533D03*
X128040793Y-93880533D03*
X128040793Y-96420533D03*
X128040793Y-98960533D03*
X130580793Y-78640533D03*
X130580793Y-81180533D03*
X130580793Y-83720533D03*
X130580793Y-86260533D03*
X130580793Y-88800533D03*
X130580793Y-91340533D03*
X130580793Y-93880533D03*
X130580793Y-96420533D03*
X130580793Y-98960533D03*
X153440793Y-78640533D03*
X153440793Y-81180533D03*
X153440793Y-83720533D03*
X153440793Y-86260533D03*
X153440793Y-88800533D03*
X153440793Y-91340533D03*
X153440793Y-93880533D03*
X153440793Y-96420533D03*
X153440793Y-98960533D03*
X155980793Y-78640533D03*
X155980793Y-81180533D03*
X155980793Y-83720533D03*
X155980793Y-86260533D03*
X155980793Y-88800533D03*
X155980793Y-91340533D03*
X155980793Y-93880533D03*
X155980793Y-96420533D03*
X155980793Y-98960533D03*
%TD*%
D11*
%TO.C,J1*%
X134460000Y-106680000D03*
D12*
X139460000Y-106680000D03*
X144460000Y-106680000D03*
X149460000Y-106680000D03*
%TD*%
M02*
