%TF.GenerationSoftware,KiCad,Pcbnew,8.0.5*%
%TF.CreationDate,2024-09-19T11:43:03+02:00*%
%TF.ProjectId,QuinLED-ESP32-Lux,5175696e-4c45-4442-9d45-535033322d4c,rev?*%
%TF.SameCoordinates,Original*%
%TF.FileFunction,Legend,Top*%
%TF.FilePolarity,Positive*%
%FSLAX46Y46*%
G04 Gerber Fmt 4.6, Leading zero omitted, Abs format (unit mm)*
G04 Created by KiCad (PCBNEW 8.0.5) date 2024-09-19 11:43:03*
%MOMM*%
%LPD*%
G01*
G04 APERTURE LIST*
%ADD10C,0.150000*%
%ADD11C,0.050000*%
%ADD12C,0.120000*%
G04 APERTURE END LIST*
D10*
X143419613Y-99719432D02*
X143562470Y-99767051D01*
X143562470Y-99767051D02*
X143800565Y-99767051D01*
X143800565Y-99767051D02*
X143895803Y-99719432D01*
X143895803Y-99719432D02*
X143943422Y-99671812D01*
X143943422Y-99671812D02*
X143991041Y-99576574D01*
X143991041Y-99576574D02*
X143991041Y-99481336D01*
X143991041Y-99481336D02*
X143943422Y-99386098D01*
X143943422Y-99386098D02*
X143895803Y-99338479D01*
X143895803Y-99338479D02*
X143800565Y-99290860D01*
X143800565Y-99290860D02*
X143610089Y-99243241D01*
X143610089Y-99243241D02*
X143514851Y-99195622D01*
X143514851Y-99195622D02*
X143467232Y-99148003D01*
X143467232Y-99148003D02*
X143419613Y-99052765D01*
X143419613Y-99052765D02*
X143419613Y-98957527D01*
X143419613Y-98957527D02*
X143467232Y-98862289D01*
X143467232Y-98862289D02*
X143514851Y-98814670D01*
X143514851Y-98814670D02*
X143610089Y-98767051D01*
X143610089Y-98767051D02*
X143848184Y-98767051D01*
X143848184Y-98767051D02*
X143991041Y-98814670D01*
X144419613Y-99767051D02*
X144419613Y-98767051D01*
X144419613Y-98767051D02*
X144657708Y-98767051D01*
X144657708Y-98767051D02*
X144800565Y-98814670D01*
X144800565Y-98814670D02*
X144895803Y-98909908D01*
X144895803Y-98909908D02*
X144943422Y-99005146D01*
X144943422Y-99005146D02*
X144991041Y-99195622D01*
X144991041Y-99195622D02*
X144991041Y-99338479D01*
X144991041Y-99338479D02*
X144943422Y-99528955D01*
X144943422Y-99528955D02*
X144895803Y-99624193D01*
X144895803Y-99624193D02*
X144800565Y-99719432D01*
X144800565Y-99719432D02*
X144657708Y-99767051D01*
X144657708Y-99767051D02*
X144419613Y-99767051D01*
X145371994Y-99481336D02*
X145848184Y-99481336D01*
X145276756Y-99767051D02*
X145610089Y-98767051D01*
X145610089Y-98767051D02*
X145943422Y-99767051D01*
X142776756Y-101757947D02*
X142729137Y-101710328D01*
X142729137Y-101710328D02*
X142633899Y-101567471D01*
X142633899Y-101567471D02*
X142586280Y-101472233D01*
X142586280Y-101472233D02*
X142538661Y-101329376D01*
X142538661Y-101329376D02*
X142491042Y-101091280D01*
X142491042Y-101091280D02*
X142491042Y-100900804D01*
X142491042Y-100900804D02*
X142538661Y-100662709D01*
X142538661Y-100662709D02*
X142586280Y-100519852D01*
X142586280Y-100519852D02*
X142633899Y-100424614D01*
X142633899Y-100424614D02*
X142729137Y-100281756D01*
X142729137Y-100281756D02*
X142776756Y-100234137D01*
X143157709Y-101376995D02*
X143157709Y-100376995D01*
X143824375Y-100376995D02*
X144014851Y-100376995D01*
X144014851Y-100376995D02*
X144110089Y-100424614D01*
X144110089Y-100424614D02*
X144205327Y-100519852D01*
X144205327Y-100519852D02*
X144252946Y-100710328D01*
X144252946Y-100710328D02*
X144252946Y-101043661D01*
X144252946Y-101043661D02*
X144205327Y-101234137D01*
X144205327Y-101234137D02*
X144110089Y-101329376D01*
X144110089Y-101329376D02*
X144014851Y-101376995D01*
X144014851Y-101376995D02*
X143824375Y-101376995D01*
X143824375Y-101376995D02*
X143729137Y-101329376D01*
X143729137Y-101329376D02*
X143633899Y-101234137D01*
X143633899Y-101234137D02*
X143586280Y-101043661D01*
X143586280Y-101043661D02*
X143586280Y-100710328D01*
X143586280Y-100710328D02*
X143633899Y-100519852D01*
X143633899Y-100519852D02*
X143729137Y-100424614D01*
X143729137Y-100424614D02*
X143824375Y-100376995D01*
X144586280Y-100376995D02*
X145205327Y-100376995D01*
X145205327Y-100376995D02*
X144871994Y-100757947D01*
X144871994Y-100757947D02*
X145014851Y-100757947D01*
X145014851Y-100757947D02*
X145110089Y-100805566D01*
X145110089Y-100805566D02*
X145157708Y-100853185D01*
X145157708Y-100853185D02*
X145205327Y-100948423D01*
X145205327Y-100948423D02*
X145205327Y-101186518D01*
X145205327Y-101186518D02*
X145157708Y-101281756D01*
X145157708Y-101281756D02*
X145110089Y-101329376D01*
X145110089Y-101329376D02*
X145014851Y-101376995D01*
X145014851Y-101376995D02*
X144729137Y-101376995D01*
X144729137Y-101376995D02*
X144633899Y-101329376D01*
X144633899Y-101329376D02*
X144586280Y-101281756D01*
X145586280Y-100472233D02*
X145633899Y-100424614D01*
X145633899Y-100424614D02*
X145729137Y-100376995D01*
X145729137Y-100376995D02*
X145967232Y-100376995D01*
X145967232Y-100376995D02*
X146062470Y-100424614D01*
X146062470Y-100424614D02*
X146110089Y-100472233D01*
X146110089Y-100472233D02*
X146157708Y-100567471D01*
X146157708Y-100567471D02*
X146157708Y-100662709D01*
X146157708Y-100662709D02*
X146110089Y-100805566D01*
X146110089Y-100805566D02*
X145538661Y-101376995D01*
X145538661Y-101376995D02*
X146157708Y-101376995D01*
X146491042Y-101757947D02*
X146538661Y-101710328D01*
X146538661Y-101710328D02*
X146633899Y-101567471D01*
X146633899Y-101567471D02*
X146681518Y-101472233D01*
X146681518Y-101472233D02*
X146729137Y-101329376D01*
X146729137Y-101329376D02*
X146776756Y-101091280D01*
X146776756Y-101091280D02*
X146776756Y-100900804D01*
X146776756Y-100900804D02*
X146729137Y-100662709D01*
X146729137Y-100662709D02*
X146681518Y-100519852D01*
X146681518Y-100519852D02*
X146633899Y-100424614D01*
X146633899Y-100424614D02*
X146538661Y-100281756D01*
X146538661Y-100281756D02*
X146491042Y-100234137D01*
X153351957Y-106471419D02*
X152875767Y-106471419D01*
X152875767Y-106471419D02*
X152875767Y-105471419D01*
X154113862Y-105804752D02*
X154113862Y-106471419D01*
X153685291Y-105804752D02*
X153685291Y-106328561D01*
X153685291Y-106328561D02*
X153732910Y-106423800D01*
X153732910Y-106423800D02*
X153828148Y-106471419D01*
X153828148Y-106471419D02*
X153971005Y-106471419D01*
X153971005Y-106471419D02*
X154066243Y-106423800D01*
X154066243Y-106423800D02*
X154113862Y-106376180D01*
X154494815Y-106471419D02*
X155018624Y-105804752D01*
X154494815Y-105804752D02*
X155018624Y-106471419D01*
X152828148Y-108033744D02*
X152923386Y-108081363D01*
X152923386Y-108081363D02*
X153113862Y-108081363D01*
X153113862Y-108081363D02*
X153209100Y-108033744D01*
X153209100Y-108033744D02*
X153256719Y-107938505D01*
X153256719Y-107938505D02*
X153256719Y-107890886D01*
X153256719Y-107890886D02*
X153209100Y-107795648D01*
X153209100Y-107795648D02*
X153113862Y-107748029D01*
X153113862Y-107748029D02*
X152971005Y-107748029D01*
X152971005Y-107748029D02*
X152875767Y-107700410D01*
X152875767Y-107700410D02*
X152828148Y-107605172D01*
X152828148Y-107605172D02*
X152828148Y-107557553D01*
X152828148Y-107557553D02*
X152875767Y-107462315D01*
X152875767Y-107462315D02*
X152971005Y-107414696D01*
X152971005Y-107414696D02*
X153113862Y-107414696D01*
X153113862Y-107414696D02*
X153209100Y-107462315D01*
X154066243Y-108033744D02*
X153971005Y-108081363D01*
X153971005Y-108081363D02*
X153780529Y-108081363D01*
X153780529Y-108081363D02*
X153685291Y-108033744D01*
X153685291Y-108033744D02*
X153637672Y-107938505D01*
X153637672Y-107938505D02*
X153637672Y-107557553D01*
X153637672Y-107557553D02*
X153685291Y-107462315D01*
X153685291Y-107462315D02*
X153780529Y-107414696D01*
X153780529Y-107414696D02*
X153971005Y-107414696D01*
X153971005Y-107414696D02*
X154066243Y-107462315D01*
X154066243Y-107462315D02*
X154113862Y-107557553D01*
X154113862Y-107557553D02*
X154113862Y-107652791D01*
X154113862Y-107652791D02*
X153637672Y-107748029D01*
X154542434Y-107414696D02*
X154542434Y-108081363D01*
X154542434Y-107509934D02*
X154590053Y-107462315D01*
X154590053Y-107462315D02*
X154685291Y-107414696D01*
X154685291Y-107414696D02*
X154828148Y-107414696D01*
X154828148Y-107414696D02*
X154923386Y-107462315D01*
X154923386Y-107462315D02*
X154971005Y-107557553D01*
X154971005Y-107557553D02*
X154971005Y-108081363D01*
X155399577Y-108033744D02*
X155494815Y-108081363D01*
X155494815Y-108081363D02*
X155685291Y-108081363D01*
X155685291Y-108081363D02*
X155780529Y-108033744D01*
X155780529Y-108033744D02*
X155828148Y-107938505D01*
X155828148Y-107938505D02*
X155828148Y-107890886D01*
X155828148Y-107890886D02*
X155780529Y-107795648D01*
X155780529Y-107795648D02*
X155685291Y-107748029D01*
X155685291Y-107748029D02*
X155542434Y-107748029D01*
X155542434Y-107748029D02*
X155447196Y-107700410D01*
X155447196Y-107700410D02*
X155399577Y-107605172D01*
X155399577Y-107605172D02*
X155399577Y-107557553D01*
X155399577Y-107557553D02*
X155447196Y-107462315D01*
X155447196Y-107462315D02*
X155542434Y-107414696D01*
X155542434Y-107414696D02*
X155685291Y-107414696D01*
X155685291Y-107414696D02*
X155780529Y-107462315D01*
X156399577Y-108081363D02*
X156304339Y-108033744D01*
X156304339Y-108033744D02*
X156256720Y-107986124D01*
X156256720Y-107986124D02*
X156209101Y-107890886D01*
X156209101Y-107890886D02*
X156209101Y-107605172D01*
X156209101Y-107605172D02*
X156256720Y-107509934D01*
X156256720Y-107509934D02*
X156304339Y-107462315D01*
X156304339Y-107462315D02*
X156399577Y-107414696D01*
X156399577Y-107414696D02*
X156542434Y-107414696D01*
X156542434Y-107414696D02*
X156637672Y-107462315D01*
X156637672Y-107462315D02*
X156685291Y-107509934D01*
X156685291Y-107509934D02*
X156732910Y-107605172D01*
X156732910Y-107605172D02*
X156732910Y-107890886D01*
X156732910Y-107890886D02*
X156685291Y-107986124D01*
X156685291Y-107986124D02*
X156637672Y-108033744D01*
X156637672Y-108033744D02*
X156542434Y-108081363D01*
X156542434Y-108081363D02*
X156399577Y-108081363D01*
X157161482Y-108081363D02*
X157161482Y-107414696D01*
X157161482Y-107605172D02*
X157209101Y-107509934D01*
X157209101Y-107509934D02*
X157256720Y-107462315D01*
X157256720Y-107462315D02*
X157351958Y-107414696D01*
X157351958Y-107414696D02*
X157447196Y-107414696D01*
X141023424Y-94858463D02*
X141023424Y-95667986D01*
X141023424Y-95667986D02*
X141071043Y-95763224D01*
X141071043Y-95763224D02*
X141118662Y-95810844D01*
X141118662Y-95810844D02*
X141213900Y-95858463D01*
X141213900Y-95858463D02*
X141404376Y-95858463D01*
X141404376Y-95858463D02*
X141499614Y-95810844D01*
X141499614Y-95810844D02*
X141547233Y-95763224D01*
X141547233Y-95763224D02*
X141594852Y-95667986D01*
X141594852Y-95667986D02*
X141594852Y-94858463D01*
X142023424Y-95810844D02*
X142166281Y-95858463D01*
X142166281Y-95858463D02*
X142404376Y-95858463D01*
X142404376Y-95858463D02*
X142499614Y-95810844D01*
X142499614Y-95810844D02*
X142547233Y-95763224D01*
X142547233Y-95763224D02*
X142594852Y-95667986D01*
X142594852Y-95667986D02*
X142594852Y-95572748D01*
X142594852Y-95572748D02*
X142547233Y-95477510D01*
X142547233Y-95477510D02*
X142499614Y-95429891D01*
X142499614Y-95429891D02*
X142404376Y-95382272D01*
X142404376Y-95382272D02*
X142213900Y-95334653D01*
X142213900Y-95334653D02*
X142118662Y-95287034D01*
X142118662Y-95287034D02*
X142071043Y-95239415D01*
X142071043Y-95239415D02*
X142023424Y-95144177D01*
X142023424Y-95144177D02*
X142023424Y-95048939D01*
X142023424Y-95048939D02*
X142071043Y-94953701D01*
X142071043Y-94953701D02*
X142118662Y-94906082D01*
X142118662Y-94906082D02*
X142213900Y-94858463D01*
X142213900Y-94858463D02*
X142451995Y-94858463D01*
X142451995Y-94858463D02*
X142594852Y-94906082D01*
X143356757Y-95334653D02*
X143499614Y-95382272D01*
X143499614Y-95382272D02*
X143547233Y-95429891D01*
X143547233Y-95429891D02*
X143594852Y-95525129D01*
X143594852Y-95525129D02*
X143594852Y-95667986D01*
X143594852Y-95667986D02*
X143547233Y-95763224D01*
X143547233Y-95763224D02*
X143499614Y-95810844D01*
X143499614Y-95810844D02*
X143404376Y-95858463D01*
X143404376Y-95858463D02*
X143023424Y-95858463D01*
X143023424Y-95858463D02*
X143023424Y-94858463D01*
X143023424Y-94858463D02*
X143356757Y-94858463D01*
X143356757Y-94858463D02*
X143451995Y-94906082D01*
X143451995Y-94906082D02*
X143499614Y-94953701D01*
X143499614Y-94953701D02*
X143547233Y-95048939D01*
X143547233Y-95048939D02*
X143547233Y-95144177D01*
X143547233Y-95144177D02*
X143499614Y-95239415D01*
X143499614Y-95239415D02*
X143451995Y-95287034D01*
X143451995Y-95287034D02*
X143356757Y-95334653D01*
X143356757Y-95334653D02*
X143023424Y-95334653D01*
X138183819Y-99719432D02*
X138326676Y-99767051D01*
X138326676Y-99767051D02*
X138564771Y-99767051D01*
X138564771Y-99767051D02*
X138660009Y-99719432D01*
X138660009Y-99719432D02*
X138707628Y-99671812D01*
X138707628Y-99671812D02*
X138755247Y-99576574D01*
X138755247Y-99576574D02*
X138755247Y-99481336D01*
X138755247Y-99481336D02*
X138707628Y-99386098D01*
X138707628Y-99386098D02*
X138660009Y-99338479D01*
X138660009Y-99338479D02*
X138564771Y-99290860D01*
X138564771Y-99290860D02*
X138374295Y-99243241D01*
X138374295Y-99243241D02*
X138279057Y-99195622D01*
X138279057Y-99195622D02*
X138231438Y-99148003D01*
X138231438Y-99148003D02*
X138183819Y-99052765D01*
X138183819Y-99052765D02*
X138183819Y-98957527D01*
X138183819Y-98957527D02*
X138231438Y-98862289D01*
X138231438Y-98862289D02*
X138279057Y-98814670D01*
X138279057Y-98814670D02*
X138374295Y-98767051D01*
X138374295Y-98767051D02*
X138612390Y-98767051D01*
X138612390Y-98767051D02*
X138755247Y-98814670D01*
X139755247Y-99671812D02*
X139707628Y-99719432D01*
X139707628Y-99719432D02*
X139564771Y-99767051D01*
X139564771Y-99767051D02*
X139469533Y-99767051D01*
X139469533Y-99767051D02*
X139326676Y-99719432D01*
X139326676Y-99719432D02*
X139231438Y-99624193D01*
X139231438Y-99624193D02*
X139183819Y-99528955D01*
X139183819Y-99528955D02*
X139136200Y-99338479D01*
X139136200Y-99338479D02*
X139136200Y-99195622D01*
X139136200Y-99195622D02*
X139183819Y-99005146D01*
X139183819Y-99005146D02*
X139231438Y-98909908D01*
X139231438Y-98909908D02*
X139326676Y-98814670D01*
X139326676Y-98814670D02*
X139469533Y-98767051D01*
X139469533Y-98767051D02*
X139564771Y-98767051D01*
X139564771Y-98767051D02*
X139707628Y-98814670D01*
X139707628Y-98814670D02*
X139755247Y-98862289D01*
X140660009Y-99767051D02*
X140183819Y-99767051D01*
X140183819Y-99767051D02*
X140183819Y-98767051D01*
X137517152Y-101757947D02*
X137469533Y-101710328D01*
X137469533Y-101710328D02*
X137374295Y-101567471D01*
X137374295Y-101567471D02*
X137326676Y-101472233D01*
X137326676Y-101472233D02*
X137279057Y-101329376D01*
X137279057Y-101329376D02*
X137231438Y-101091280D01*
X137231438Y-101091280D02*
X137231438Y-100900804D01*
X137231438Y-100900804D02*
X137279057Y-100662709D01*
X137279057Y-100662709D02*
X137326676Y-100519852D01*
X137326676Y-100519852D02*
X137374295Y-100424614D01*
X137374295Y-100424614D02*
X137469533Y-100281756D01*
X137469533Y-100281756D02*
X137517152Y-100234137D01*
X137898105Y-101376995D02*
X137898105Y-100376995D01*
X138564771Y-100376995D02*
X138755247Y-100376995D01*
X138755247Y-100376995D02*
X138850485Y-100424614D01*
X138850485Y-100424614D02*
X138945723Y-100519852D01*
X138945723Y-100519852D02*
X138993342Y-100710328D01*
X138993342Y-100710328D02*
X138993342Y-101043661D01*
X138993342Y-101043661D02*
X138945723Y-101234137D01*
X138945723Y-101234137D02*
X138850485Y-101329376D01*
X138850485Y-101329376D02*
X138755247Y-101376995D01*
X138755247Y-101376995D02*
X138564771Y-101376995D01*
X138564771Y-101376995D02*
X138469533Y-101329376D01*
X138469533Y-101329376D02*
X138374295Y-101234137D01*
X138374295Y-101234137D02*
X138326676Y-101043661D01*
X138326676Y-101043661D02*
X138326676Y-100710328D01*
X138326676Y-100710328D02*
X138374295Y-100519852D01*
X138374295Y-100519852D02*
X138469533Y-100424614D01*
X138469533Y-100424614D02*
X138564771Y-100376995D01*
X139326676Y-100376995D02*
X139945723Y-100376995D01*
X139945723Y-100376995D02*
X139612390Y-100757947D01*
X139612390Y-100757947D02*
X139755247Y-100757947D01*
X139755247Y-100757947D02*
X139850485Y-100805566D01*
X139850485Y-100805566D02*
X139898104Y-100853185D01*
X139898104Y-100853185D02*
X139945723Y-100948423D01*
X139945723Y-100948423D02*
X139945723Y-101186518D01*
X139945723Y-101186518D02*
X139898104Y-101281756D01*
X139898104Y-101281756D02*
X139850485Y-101329376D01*
X139850485Y-101329376D02*
X139755247Y-101376995D01*
X139755247Y-101376995D02*
X139469533Y-101376995D01*
X139469533Y-101376995D02*
X139374295Y-101329376D01*
X139374295Y-101329376D02*
X139326676Y-101281756D01*
X140279057Y-100376995D02*
X140898104Y-100376995D01*
X140898104Y-100376995D02*
X140564771Y-100757947D01*
X140564771Y-100757947D02*
X140707628Y-100757947D01*
X140707628Y-100757947D02*
X140802866Y-100805566D01*
X140802866Y-100805566D02*
X140850485Y-100853185D01*
X140850485Y-100853185D02*
X140898104Y-100948423D01*
X140898104Y-100948423D02*
X140898104Y-101186518D01*
X140898104Y-101186518D02*
X140850485Y-101281756D01*
X140850485Y-101281756D02*
X140802866Y-101329376D01*
X140802866Y-101329376D02*
X140707628Y-101376995D01*
X140707628Y-101376995D02*
X140421914Y-101376995D01*
X140421914Y-101376995D02*
X140326676Y-101329376D01*
X140326676Y-101329376D02*
X140279057Y-101281756D01*
X141231438Y-101757947D02*
X141279057Y-101710328D01*
X141279057Y-101710328D02*
X141374295Y-101567471D01*
X141374295Y-101567471D02*
X141421914Y-101472233D01*
X141421914Y-101472233D02*
X141469533Y-101329376D01*
X141469533Y-101329376D02*
X141517152Y-101091280D01*
X141517152Y-101091280D02*
X141517152Y-100900804D01*
X141517152Y-100900804D02*
X141469533Y-100662709D01*
X141469533Y-100662709D02*
X141421914Y-100519852D01*
X141421914Y-100519852D02*
X141374295Y-100424614D01*
X141374295Y-100424614D02*
X141279057Y-100281756D01*
X141279057Y-100281756D02*
X141231438Y-100234137D01*
X140049740Y-87799895D02*
X139954502Y-87752276D01*
X139954502Y-87752276D02*
X139859264Y-87657038D01*
X139859264Y-87657038D02*
X139716407Y-87514180D01*
X139716407Y-87514180D02*
X139621169Y-87466561D01*
X139621169Y-87466561D02*
X139525931Y-87466561D01*
X139573550Y-87704657D02*
X139478312Y-87657038D01*
X139478312Y-87657038D02*
X139383074Y-87561799D01*
X139383074Y-87561799D02*
X139335455Y-87371323D01*
X139335455Y-87371323D02*
X139335455Y-87037990D01*
X139335455Y-87037990D02*
X139383074Y-86847514D01*
X139383074Y-86847514D02*
X139478312Y-86752276D01*
X139478312Y-86752276D02*
X139573550Y-86704657D01*
X139573550Y-86704657D02*
X139764026Y-86704657D01*
X139764026Y-86704657D02*
X139859264Y-86752276D01*
X139859264Y-86752276D02*
X139954502Y-86847514D01*
X139954502Y-86847514D02*
X140002121Y-87037990D01*
X140002121Y-87037990D02*
X140002121Y-87371323D01*
X140002121Y-87371323D02*
X139954502Y-87561799D01*
X139954502Y-87561799D02*
X139859264Y-87657038D01*
X139859264Y-87657038D02*
X139764026Y-87704657D01*
X139764026Y-87704657D02*
X139573550Y-87704657D01*
X140430693Y-86704657D02*
X140430693Y-87514180D01*
X140430693Y-87514180D02*
X140478312Y-87609418D01*
X140478312Y-87609418D02*
X140525931Y-87657038D01*
X140525931Y-87657038D02*
X140621169Y-87704657D01*
X140621169Y-87704657D02*
X140811645Y-87704657D01*
X140811645Y-87704657D02*
X140906883Y-87657038D01*
X140906883Y-87657038D02*
X140954502Y-87609418D01*
X140954502Y-87609418D02*
X141002121Y-87514180D01*
X141002121Y-87514180D02*
X141002121Y-86704657D01*
X141478312Y-87704657D02*
X141478312Y-86704657D01*
X141954502Y-87704657D02*
X141954502Y-86704657D01*
X141954502Y-86704657D02*
X142525930Y-87704657D01*
X142525930Y-87704657D02*
X142525930Y-86704657D01*
X143478311Y-87704657D02*
X143002121Y-87704657D01*
X143002121Y-87704657D02*
X143002121Y-86704657D01*
X143811645Y-87180847D02*
X144144978Y-87180847D01*
X144287835Y-87704657D02*
X143811645Y-87704657D01*
X143811645Y-87704657D02*
X143811645Y-86704657D01*
X143811645Y-86704657D02*
X144287835Y-86704657D01*
X144716407Y-87704657D02*
X144716407Y-86704657D01*
X144716407Y-86704657D02*
X144954502Y-86704657D01*
X144954502Y-86704657D02*
X145097359Y-86752276D01*
X145097359Y-86752276D02*
X145192597Y-86847514D01*
X145192597Y-86847514D02*
X145240216Y-86942752D01*
X145240216Y-86942752D02*
X145287835Y-87133228D01*
X145287835Y-87133228D02*
X145287835Y-87276085D01*
X145287835Y-87276085D02*
X145240216Y-87466561D01*
X145240216Y-87466561D02*
X145192597Y-87561799D01*
X145192597Y-87561799D02*
X145097359Y-87657038D01*
X145097359Y-87657038D02*
X144954502Y-87704657D01*
X144954502Y-87704657D02*
X144716407Y-87704657D01*
X140168788Y-88790791D02*
X140502121Y-88790791D01*
X140644978Y-89314601D02*
X140168788Y-89314601D01*
X140168788Y-89314601D02*
X140168788Y-88314601D01*
X140168788Y-88314601D02*
X140644978Y-88314601D01*
X141025931Y-89266982D02*
X141168788Y-89314601D01*
X141168788Y-89314601D02*
X141406883Y-89314601D01*
X141406883Y-89314601D02*
X141502121Y-89266982D01*
X141502121Y-89266982D02*
X141549740Y-89219362D01*
X141549740Y-89219362D02*
X141597359Y-89124124D01*
X141597359Y-89124124D02*
X141597359Y-89028886D01*
X141597359Y-89028886D02*
X141549740Y-88933648D01*
X141549740Y-88933648D02*
X141502121Y-88886029D01*
X141502121Y-88886029D02*
X141406883Y-88838410D01*
X141406883Y-88838410D02*
X141216407Y-88790791D01*
X141216407Y-88790791D02*
X141121169Y-88743172D01*
X141121169Y-88743172D02*
X141073550Y-88695553D01*
X141073550Y-88695553D02*
X141025931Y-88600315D01*
X141025931Y-88600315D02*
X141025931Y-88505077D01*
X141025931Y-88505077D02*
X141073550Y-88409839D01*
X141073550Y-88409839D02*
X141121169Y-88362220D01*
X141121169Y-88362220D02*
X141216407Y-88314601D01*
X141216407Y-88314601D02*
X141454502Y-88314601D01*
X141454502Y-88314601D02*
X141597359Y-88362220D01*
X142025931Y-89314601D02*
X142025931Y-88314601D01*
X142025931Y-88314601D02*
X142406883Y-88314601D01*
X142406883Y-88314601D02*
X142502121Y-88362220D01*
X142502121Y-88362220D02*
X142549740Y-88409839D01*
X142549740Y-88409839D02*
X142597359Y-88505077D01*
X142597359Y-88505077D02*
X142597359Y-88647934D01*
X142597359Y-88647934D02*
X142549740Y-88743172D01*
X142549740Y-88743172D02*
X142502121Y-88790791D01*
X142502121Y-88790791D02*
X142406883Y-88838410D01*
X142406883Y-88838410D02*
X142025931Y-88838410D01*
X142930693Y-88314601D02*
X143549740Y-88314601D01*
X143549740Y-88314601D02*
X143216407Y-88695553D01*
X143216407Y-88695553D02*
X143359264Y-88695553D01*
X143359264Y-88695553D02*
X143454502Y-88743172D01*
X143454502Y-88743172D02*
X143502121Y-88790791D01*
X143502121Y-88790791D02*
X143549740Y-88886029D01*
X143549740Y-88886029D02*
X143549740Y-89124124D01*
X143549740Y-89124124D02*
X143502121Y-89219362D01*
X143502121Y-89219362D02*
X143454502Y-89266982D01*
X143454502Y-89266982D02*
X143359264Y-89314601D01*
X143359264Y-89314601D02*
X143073550Y-89314601D01*
X143073550Y-89314601D02*
X142978312Y-89266982D01*
X142978312Y-89266982D02*
X142930693Y-89219362D01*
X143930693Y-88409839D02*
X143978312Y-88362220D01*
X143978312Y-88362220D02*
X144073550Y-88314601D01*
X144073550Y-88314601D02*
X144311645Y-88314601D01*
X144311645Y-88314601D02*
X144406883Y-88362220D01*
X144406883Y-88362220D02*
X144454502Y-88409839D01*
X144454502Y-88409839D02*
X144502121Y-88505077D01*
X144502121Y-88505077D02*
X144502121Y-88600315D01*
X144502121Y-88600315D02*
X144454502Y-88743172D01*
X144454502Y-88743172D02*
X143883074Y-89314601D01*
X143883074Y-89314601D02*
X144502121Y-89314601D01*
X125358786Y-110770392D02*
X125358786Y-110503726D01*
X125777834Y-110389440D02*
X125777834Y-110770392D01*
X125777834Y-110770392D02*
X124977834Y-110770392D01*
X124977834Y-110770392D02*
X124977834Y-110389440D01*
X125739739Y-110084678D02*
X125777834Y-109970392D01*
X125777834Y-109970392D02*
X125777834Y-109779916D01*
X125777834Y-109779916D02*
X125739739Y-109703725D01*
X125739739Y-109703725D02*
X125701643Y-109665630D01*
X125701643Y-109665630D02*
X125625453Y-109627535D01*
X125625453Y-109627535D02*
X125549262Y-109627535D01*
X125549262Y-109627535D02*
X125473072Y-109665630D01*
X125473072Y-109665630D02*
X125434977Y-109703725D01*
X125434977Y-109703725D02*
X125396881Y-109779916D01*
X125396881Y-109779916D02*
X125358786Y-109932297D01*
X125358786Y-109932297D02*
X125320691Y-110008487D01*
X125320691Y-110008487D02*
X125282596Y-110046582D01*
X125282596Y-110046582D02*
X125206405Y-110084678D01*
X125206405Y-110084678D02*
X125130215Y-110084678D01*
X125130215Y-110084678D02*
X125054024Y-110046582D01*
X125054024Y-110046582D02*
X125015929Y-110008487D01*
X125015929Y-110008487D02*
X124977834Y-109932297D01*
X124977834Y-109932297D02*
X124977834Y-109741820D01*
X124977834Y-109741820D02*
X125015929Y-109627535D01*
X125777834Y-109284677D02*
X124977834Y-109284677D01*
X124977834Y-109284677D02*
X124977834Y-108979915D01*
X124977834Y-108979915D02*
X125015929Y-108903725D01*
X125015929Y-108903725D02*
X125054024Y-108865630D01*
X125054024Y-108865630D02*
X125130215Y-108827534D01*
X125130215Y-108827534D02*
X125244500Y-108827534D01*
X125244500Y-108827534D02*
X125320691Y-108865630D01*
X125320691Y-108865630D02*
X125358786Y-108903725D01*
X125358786Y-108903725D02*
X125396881Y-108979915D01*
X125396881Y-108979915D02*
X125396881Y-109284677D01*
X124977834Y-108560868D02*
X124977834Y-108065630D01*
X124977834Y-108065630D02*
X125282596Y-108332296D01*
X125282596Y-108332296D02*
X125282596Y-108218011D01*
X125282596Y-108218011D02*
X125320691Y-108141820D01*
X125320691Y-108141820D02*
X125358786Y-108103725D01*
X125358786Y-108103725D02*
X125434977Y-108065630D01*
X125434977Y-108065630D02*
X125625453Y-108065630D01*
X125625453Y-108065630D02*
X125701643Y-108103725D01*
X125701643Y-108103725D02*
X125739739Y-108141820D01*
X125739739Y-108141820D02*
X125777834Y-108218011D01*
X125777834Y-108218011D02*
X125777834Y-108446582D01*
X125777834Y-108446582D02*
X125739739Y-108522773D01*
X125739739Y-108522773D02*
X125701643Y-108560868D01*
X125054024Y-107760868D02*
X125015929Y-107722772D01*
X125015929Y-107722772D02*
X124977834Y-107646582D01*
X124977834Y-107646582D02*
X124977834Y-107456106D01*
X124977834Y-107456106D02*
X125015929Y-107379915D01*
X125015929Y-107379915D02*
X125054024Y-107341820D01*
X125054024Y-107341820D02*
X125130215Y-107303725D01*
X125130215Y-107303725D02*
X125206405Y-107303725D01*
X125206405Y-107303725D02*
X125320691Y-107341820D01*
X125320691Y-107341820D02*
X125777834Y-107798963D01*
X125777834Y-107798963D02*
X125777834Y-107303725D01*
X125473072Y-106960867D02*
X125473072Y-106351344D01*
X125777834Y-105589439D02*
X125777834Y-105970391D01*
X125777834Y-105970391D02*
X124977834Y-105970391D01*
X124977834Y-105322772D02*
X125625453Y-105322772D01*
X125625453Y-105322772D02*
X125701643Y-105284677D01*
X125701643Y-105284677D02*
X125739739Y-105246582D01*
X125739739Y-105246582D02*
X125777834Y-105170391D01*
X125777834Y-105170391D02*
X125777834Y-105018010D01*
X125777834Y-105018010D02*
X125739739Y-104941820D01*
X125739739Y-104941820D02*
X125701643Y-104903725D01*
X125701643Y-104903725D02*
X125625453Y-104865629D01*
X125625453Y-104865629D02*
X124977834Y-104865629D01*
X124977834Y-104560868D02*
X125777834Y-104027534D01*
X124977834Y-104027534D02*
X125777834Y-104560868D01*
X125777834Y-102656105D02*
X125396881Y-102922772D01*
X125777834Y-103113248D02*
X124977834Y-103113248D01*
X124977834Y-103113248D02*
X124977834Y-102808486D01*
X124977834Y-102808486D02*
X125015929Y-102732296D01*
X125015929Y-102732296D02*
X125054024Y-102694201D01*
X125054024Y-102694201D02*
X125130215Y-102656105D01*
X125130215Y-102656105D02*
X125244500Y-102656105D01*
X125244500Y-102656105D02*
X125320691Y-102694201D01*
X125320691Y-102694201D02*
X125358786Y-102732296D01*
X125358786Y-102732296D02*
X125396881Y-102808486D01*
X125396881Y-102808486D02*
X125396881Y-103113248D01*
X125358786Y-102313248D02*
X125358786Y-102046582D01*
X125777834Y-101932296D02*
X125777834Y-102313248D01*
X125777834Y-102313248D02*
X124977834Y-102313248D01*
X124977834Y-102313248D02*
X124977834Y-101932296D01*
X124977834Y-101703724D02*
X125777834Y-101437057D01*
X125777834Y-101437057D02*
X124977834Y-101170391D01*
X125701643Y-100903724D02*
X125739739Y-100865629D01*
X125739739Y-100865629D02*
X125777834Y-100903724D01*
X125777834Y-100903724D02*
X125739739Y-100941820D01*
X125739739Y-100941820D02*
X125701643Y-100903724D01*
X125701643Y-100903724D02*
X125777834Y-100903724D01*
X125282596Y-100903724D02*
X125320691Y-100865629D01*
X125320691Y-100865629D02*
X125358786Y-100903724D01*
X125358786Y-100903724D02*
X125320691Y-100941820D01*
X125320691Y-100941820D02*
X125282596Y-100903724D01*
X125282596Y-100903724D02*
X125358786Y-100903724D01*
X124977834Y-99760867D02*
X124977834Y-99684677D01*
X124977834Y-99684677D02*
X125015929Y-99608486D01*
X125015929Y-99608486D02*
X125054024Y-99570391D01*
X125054024Y-99570391D02*
X125130215Y-99532296D01*
X125130215Y-99532296D02*
X125282596Y-99494201D01*
X125282596Y-99494201D02*
X125473072Y-99494201D01*
X125473072Y-99494201D02*
X125625453Y-99532296D01*
X125625453Y-99532296D02*
X125701643Y-99570391D01*
X125701643Y-99570391D02*
X125739739Y-99608486D01*
X125739739Y-99608486D02*
X125777834Y-99684677D01*
X125777834Y-99684677D02*
X125777834Y-99760867D01*
X125777834Y-99760867D02*
X125739739Y-99837058D01*
X125739739Y-99837058D02*
X125701643Y-99875153D01*
X125701643Y-99875153D02*
X125625453Y-99913248D01*
X125625453Y-99913248D02*
X125473072Y-99951344D01*
X125473072Y-99951344D02*
X125282596Y-99951344D01*
X125282596Y-99951344D02*
X125130215Y-99913248D01*
X125130215Y-99913248D02*
X125054024Y-99875153D01*
X125054024Y-99875153D02*
X125015929Y-99837058D01*
X125015929Y-99837058D02*
X124977834Y-99760867D01*
X125701643Y-99151343D02*
X125739739Y-99113248D01*
X125739739Y-99113248D02*
X125777834Y-99151343D01*
X125777834Y-99151343D02*
X125739739Y-99189439D01*
X125739739Y-99189439D02*
X125701643Y-99151343D01*
X125701643Y-99151343D02*
X125777834Y-99151343D01*
X125054024Y-98808487D02*
X125015929Y-98770391D01*
X125015929Y-98770391D02*
X124977834Y-98694201D01*
X124977834Y-98694201D02*
X124977834Y-98503725D01*
X124977834Y-98503725D02*
X125015929Y-98427534D01*
X125015929Y-98427534D02*
X125054024Y-98389439D01*
X125054024Y-98389439D02*
X125130215Y-98351344D01*
X125130215Y-98351344D02*
X125206405Y-98351344D01*
X125206405Y-98351344D02*
X125320691Y-98389439D01*
X125320691Y-98389439D02*
X125777834Y-98846582D01*
X125777834Y-98846582D02*
X125777834Y-98351344D01*
X137642472Y-80139004D02*
X137880567Y-81139004D01*
X137880567Y-81139004D02*
X138071043Y-80424718D01*
X138071043Y-80424718D02*
X138261519Y-81139004D01*
X138261519Y-81139004D02*
X138499615Y-80139004D01*
X138880567Y-81139004D02*
X138880567Y-80139004D01*
X139690090Y-80615194D02*
X139356757Y-80615194D01*
X139356757Y-81139004D02*
X139356757Y-80139004D01*
X139356757Y-80139004D02*
X139832947Y-80139004D01*
X140213900Y-81139004D02*
X140213900Y-80139004D01*
X141404376Y-80853289D02*
X141880566Y-80853289D01*
X141309138Y-81139004D02*
X141642471Y-80139004D01*
X141642471Y-80139004D02*
X141975804Y-81139004D01*
X142309138Y-80472337D02*
X142309138Y-81139004D01*
X142309138Y-80567575D02*
X142356757Y-80519956D01*
X142356757Y-80519956D02*
X142451995Y-80472337D01*
X142451995Y-80472337D02*
X142594852Y-80472337D01*
X142594852Y-80472337D02*
X142690090Y-80519956D01*
X142690090Y-80519956D02*
X142737709Y-80615194D01*
X142737709Y-80615194D02*
X142737709Y-81139004D01*
X143071043Y-80472337D02*
X143451995Y-80472337D01*
X143213900Y-80139004D02*
X143213900Y-80996146D01*
X143213900Y-80996146D02*
X143261519Y-81091385D01*
X143261519Y-81091385D02*
X143356757Y-81139004D01*
X143356757Y-81139004D02*
X143451995Y-81139004D01*
X144166281Y-81091385D02*
X144071043Y-81139004D01*
X144071043Y-81139004D02*
X143880567Y-81139004D01*
X143880567Y-81139004D02*
X143785329Y-81091385D01*
X143785329Y-81091385D02*
X143737710Y-80996146D01*
X143737710Y-80996146D02*
X143737710Y-80615194D01*
X143737710Y-80615194D02*
X143785329Y-80519956D01*
X143785329Y-80519956D02*
X143880567Y-80472337D01*
X143880567Y-80472337D02*
X144071043Y-80472337D01*
X144071043Y-80472337D02*
X144166281Y-80519956D01*
X144166281Y-80519956D02*
X144213900Y-80615194D01*
X144213900Y-80615194D02*
X144213900Y-80710432D01*
X144213900Y-80710432D02*
X143737710Y-80805670D01*
X144642472Y-80472337D02*
X144642472Y-81139004D01*
X144642472Y-80567575D02*
X144690091Y-80519956D01*
X144690091Y-80519956D02*
X144785329Y-80472337D01*
X144785329Y-80472337D02*
X144928186Y-80472337D01*
X144928186Y-80472337D02*
X145023424Y-80519956D01*
X145023424Y-80519956D02*
X145071043Y-80615194D01*
X145071043Y-80615194D02*
X145071043Y-81139004D01*
X145547234Y-80472337D02*
X145547234Y-81139004D01*
X145547234Y-80567575D02*
X145594853Y-80519956D01*
X145594853Y-80519956D02*
X145690091Y-80472337D01*
X145690091Y-80472337D02*
X145832948Y-80472337D01*
X145832948Y-80472337D02*
X145928186Y-80519956D01*
X145928186Y-80519956D02*
X145975805Y-80615194D01*
X145975805Y-80615194D02*
X145975805Y-81139004D01*
X146832948Y-81091385D02*
X146737710Y-81139004D01*
X146737710Y-81139004D02*
X146547234Y-81139004D01*
X146547234Y-81139004D02*
X146451996Y-81091385D01*
X146451996Y-81091385D02*
X146404377Y-80996146D01*
X146404377Y-80996146D02*
X146404377Y-80615194D01*
X146404377Y-80615194D02*
X146451996Y-80519956D01*
X146451996Y-80519956D02*
X146547234Y-80472337D01*
X146547234Y-80472337D02*
X146737710Y-80472337D01*
X146737710Y-80472337D02*
X146832948Y-80519956D01*
X146832948Y-80519956D02*
X146880567Y-80615194D01*
X146880567Y-80615194D02*
X146880567Y-80710432D01*
X146880567Y-80710432D02*
X146404377Y-80805670D01*
X134140861Y-100376995D02*
X133664671Y-100376995D01*
X133664671Y-100376995D02*
X133617052Y-100853185D01*
X133617052Y-100853185D02*
X133664671Y-100805566D01*
X133664671Y-100805566D02*
X133759909Y-100757947D01*
X133759909Y-100757947D02*
X133998004Y-100757947D01*
X133998004Y-100757947D02*
X134093242Y-100805566D01*
X134093242Y-100805566D02*
X134140861Y-100853185D01*
X134140861Y-100853185D02*
X134188480Y-100948423D01*
X134188480Y-100948423D02*
X134188480Y-101186518D01*
X134188480Y-101186518D02*
X134140861Y-101281756D01*
X134140861Y-101281756D02*
X134093242Y-101329376D01*
X134093242Y-101329376D02*
X133998004Y-101376995D01*
X133998004Y-101376995D02*
X133759909Y-101376995D01*
X133759909Y-101376995D02*
X133664671Y-101329376D01*
X133664671Y-101329376D02*
X133617052Y-101281756D01*
X134474195Y-100376995D02*
X134807528Y-101376995D01*
X134807528Y-101376995D02*
X135140861Y-100376995D01*
X135474195Y-100996042D02*
X136236100Y-100996042D01*
X135855147Y-101376995D02*
X135855147Y-100615090D01*
X148781740Y-100424614D02*
X148686502Y-100376995D01*
X148686502Y-100376995D02*
X148543645Y-100376995D01*
X148543645Y-100376995D02*
X148400788Y-100424614D01*
X148400788Y-100424614D02*
X148305550Y-100519852D01*
X148305550Y-100519852D02*
X148257931Y-100615090D01*
X148257931Y-100615090D02*
X148210312Y-100805566D01*
X148210312Y-100805566D02*
X148210312Y-100948423D01*
X148210312Y-100948423D02*
X148257931Y-101138899D01*
X148257931Y-101138899D02*
X148305550Y-101234137D01*
X148305550Y-101234137D02*
X148400788Y-101329376D01*
X148400788Y-101329376D02*
X148543645Y-101376995D01*
X148543645Y-101376995D02*
X148638883Y-101376995D01*
X148638883Y-101376995D02*
X148781740Y-101329376D01*
X148781740Y-101329376D02*
X148829359Y-101281756D01*
X148829359Y-101281756D02*
X148829359Y-100948423D01*
X148829359Y-100948423D02*
X148638883Y-100948423D01*
X149257931Y-101376995D02*
X149257931Y-100376995D01*
X149257931Y-100376995D02*
X149829359Y-101376995D01*
X149829359Y-101376995D02*
X149829359Y-100376995D01*
X150305550Y-101376995D02*
X150305550Y-100376995D01*
X150305550Y-100376995D02*
X150543645Y-100376995D01*
X150543645Y-100376995D02*
X150686502Y-100424614D01*
X150686502Y-100424614D02*
X150781740Y-100519852D01*
X150781740Y-100519852D02*
X150829359Y-100615090D01*
X150829359Y-100615090D02*
X150876978Y-100805566D01*
X150876978Y-100805566D02*
X150876978Y-100948423D01*
X150876978Y-100948423D02*
X150829359Y-101138899D01*
X150829359Y-101138899D02*
X150781740Y-101234137D01*
X150781740Y-101234137D02*
X150686502Y-101329376D01*
X150686502Y-101329376D02*
X150543645Y-101376995D01*
X150543645Y-101376995D02*
X150305550Y-101376995D01*
D11*
%TO.C,U1*%
X126516793Y-77573733D02*
X126516793Y-109481213D01*
X126999393Y-77091133D02*
X132358793Y-77091133D01*
X126999393Y-109963813D02*
X135876693Y-109984133D01*
X132358793Y-77091133D02*
X133908193Y-78742133D01*
X133908193Y-78742133D02*
X149999093Y-78742133D01*
X136791093Y-110898533D02*
X135876693Y-109984133D01*
X136791093Y-110898533D02*
X145846193Y-110898533D01*
X145846193Y-110898533D02*
X146760593Y-109984133D01*
X146760593Y-109984133D02*
X157047593Y-109984133D01*
X149999093Y-78742133D02*
X151675493Y-77091133D01*
X151675493Y-77091133D02*
X157047593Y-77091133D01*
X157530193Y-77573733D02*
X157530193Y-109501533D01*
X126516793Y-77573733D02*
G75*
G02*
X126999393Y-77091133I482599J1D01*
G01*
X126999393Y-109963813D02*
G75*
G02*
X126516793Y-109481213I-1J482599D01*
G01*
X157047593Y-77091133D02*
G75*
G02*
X157530193Y-77573733I0J-482600D01*
G01*
X157530193Y-109501533D02*
G75*
G02*
X157047593Y-109984133I-482600J0D01*
G01*
D12*
%TO.C,J1*%
X131660000Y-110240000D02*
X131660000Y-110980000D01*
X131660000Y-110980000D02*
X132160000Y-110980000D01*
X131900000Y-102320000D02*
X131900000Y-110740000D01*
X131900000Y-102320000D02*
X152021000Y-102320000D01*
X131900000Y-104379000D02*
X152021000Y-104379000D01*
X131900000Y-108680000D02*
X152021000Y-108680000D01*
X131900000Y-110180000D02*
X152021000Y-110180000D01*
X131900000Y-110740000D02*
X152021000Y-110740000D01*
X133460000Y-102380000D02*
X133460000Y-103380000D01*
X133460000Y-102380000D02*
X135460000Y-102380000D01*
X133460000Y-103380000D02*
X135460000Y-103380000D01*
X135460000Y-102380000D02*
X135460000Y-103380000D01*
X138233000Y-107703000D02*
X138186000Y-107749000D01*
X138426000Y-107919000D02*
X138391000Y-107954000D01*
X138460000Y-102380000D02*
X138460000Y-103380000D01*
X138460000Y-102380000D02*
X140460000Y-102380000D01*
X138460000Y-103380000D02*
X140460000Y-103380000D01*
X140460000Y-102380000D02*
X140460000Y-103380000D01*
X140530000Y-105405000D02*
X140495000Y-105441000D01*
X140735000Y-105611000D02*
X140688000Y-105657000D01*
X143233000Y-107703000D02*
X143186000Y-107749000D01*
X143426000Y-107919000D02*
X143391000Y-107954000D01*
X143460000Y-102380000D02*
X143460000Y-103380000D01*
X143460000Y-102380000D02*
X145460000Y-102380000D01*
X143460000Y-103380000D02*
X145460000Y-103380000D01*
X145460000Y-102380000D02*
X145460000Y-103380000D01*
X145530000Y-105405000D02*
X145495000Y-105441000D01*
X145735000Y-105611000D02*
X145688000Y-105657000D01*
X148233000Y-107703000D02*
X148186000Y-107749000D01*
X148426000Y-107919000D02*
X148391000Y-107954000D01*
X148460000Y-102380000D02*
X148460000Y-103380000D01*
X148460000Y-102380000D02*
X150460000Y-102380000D01*
X148460000Y-103380000D02*
X150460000Y-103380000D01*
X150460000Y-102380000D02*
X150460000Y-103380000D01*
X150530000Y-105405000D02*
X150495000Y-105441000D01*
X150735000Y-105611000D02*
X150688000Y-105657000D01*
X152021000Y-102320000D02*
X152021000Y-110740000D01*
X132924573Y-107363042D02*
G75*
G02*
X132925000Y-105996000I1535420J683041D01*
G01*
X133776958Y-105144573D02*
G75*
G02*
X135144000Y-105145000I683041J-1535420D01*
G01*
X134488805Y-108360253D02*
G75*
G02*
X133776000Y-108215000I-28806J1680254D01*
G01*
X135143318Y-108214756D02*
G75*
G02*
X134460000Y-108360000I-683318J1534756D01*
G01*
X135995427Y-105996958D02*
G75*
G02*
X135995000Y-107364000I-1535427J-683042D01*
G01*
X141140000Y-106680000D02*
G75*
G02*
X137780000Y-106680000I-1680000J0D01*
G01*
X137780000Y-106680000D02*
G75*
G02*
X141140000Y-106680000I1680000J0D01*
G01*
X146140000Y-106680000D02*
G75*
G02*
X142780000Y-106680000I-1680000J0D01*
G01*
X142780000Y-106680000D02*
G75*
G02*
X146140000Y-106680000I1680000J0D01*
G01*
X151140000Y-106680000D02*
G75*
G02*
X147780000Y-106680000I-1680000J0D01*
G01*
X147780000Y-106680000D02*
G75*
G02*
X151140000Y-106680000I1680000J0D01*
G01*
%TD*%
M02*
